<?xml version="1.0" encoding="UTF-8"?>
<svg id="Layer_1" data-name="Layer 1" xmlns="http://www.w3.org/2000/svg" viewBox="0 0 1080 1080">
  <defs>
    <style>
      .cls-1 {
        fill: #fbd28d;
      }
    </style>
  </defs>
  <rect width="1080" height="1080"/>
  <g>
    <g>
      <path class="cls-1" d="M531.22,555.84h-169.66v-17.12c7.88-.59,17.16-2.01,27.82-4.28,10.66-2.27,15.99-5.08,15.99-8.45,0-1.17-.11-2.49-.33-3.95s-.84-3.44-1.87-5.93l-26.58-64.53h-107.51c-2.49,6-5.21,13.02-8.19,21.07s-5.56,15.22-7.74,21.51c-2.76,8.19-4.41,14.12-4.92,17.78s-.77,6.22-.77,7.68c0,4.68,3.55,8.67,10.65,11.96,7.08,3.29,18.89,5.67,35.41,7.13v17.12h-127.74v-17.12c4.83-.29,10.28-1.06,16.35-2.3s10.86-2.96,14.38-5.16c6-3.51,11.08-7.83,15.25-12.95s7.65-11.19,10.43-18.22c16.97-41.12,33.98-82.31,51.03-123.57,17.05-41.26,35.89-86.77,56.52-136.52h43.9c28.68,70.53,51.14,126.28,67.38,167.25,16.24,40.97,30.07,74.92,41.48,101.84,1.9,4.39,4.32,8.38,7.24,11.96s7.1,6.99,12.51,10.21c4.1,2.34,8.85,4.1,14.27,5.27,5.41,1.17,10.32,1.9,14.71,2.19v17.12Zm-163.66-125.99l-45.07-112.58-44.43,112.58h89.5Z"/>
      <path class="cls-1" d="M914.22,555.84h-168.35v-17.12c3.66-.29,9-.73,16.02-1.32,7.02-.59,11.85-1.46,14.49-2.63,5.41-2.19,9.15-5.08,11.19-8.67,2.05-3.58,3.07-8.16,3.07-13.72v-107.33h-133.01v104.91c0,4.98,1.06,9.44,3.18,13.39s5.74,7.02,10.86,9.22c2.78,1.17,7.54,2.41,14.27,3.73,6.73,1.32,12.22,2.12,16.46,2.41v17.12h-168.35v-17.12c3.66-.15,9.04-.62,16.13-1.43s12.25-1.79,15.47-2.96c5.27-1.9,8.93-4.79,10.97-8.67,2.05-3.88,3.07-8.45,3.07-13.72v-220.36c0-5.12-.91-9.44-2.74-12.95-1.83-3.51-5.6-6.58-11.3-9.22-4.24-1.9-9.8-3.62-16.68-5.16-6.88-1.54-11.85-2.45-14.93-2.74v-17.12h168.35v17.12c-4.54,.29-9.95,1.02-16.24,2.19-6.29,1.17-11.12,2.27-14.49,3.29-5.71,1.9-9.47,4.94-11.3,9.11-1.83,4.17-2.74,8.6-2.74,13.28v93.06h133.01v-90.87c0-5.12-.95-9.44-2.85-12.95-1.9-3.51-5.71-6.58-11.41-9.22-3.8-1.76-8.89-3.4-15.25-4.94s-11.45-2.52-15.25-2.96v-17.12h168.35v17.12c-4.68,.29-9.95,.91-15.8,1.87-5.85,.95-11.12,2.16-15.8,3.62-5.56,1.9-9.29,4.9-11.19,9s-2.85,8.56-2.85,13.39v220.58c0,5.27,.95,9.73,2.85,13.39s5.63,6.73,11.19,9.22c3.51,1.46,8.6,2.78,15.25,3.95,6.66,1.17,12.11,1.9,16.35,2.19v17.12Z"/>
    </g>
    <g>
      <path class="cls-1" d="M229.82,840c-20.04,0-35.72-6.65-47.05-19.94-11.33-13.3-16.99-31.13-16.99-53.51,0-9.74,1.52-18.84,4.56-27.32,3.04-8.47,7.47-16.17,13.27-23.1,5.52-6.65,12.45-12.01,20.79-16.08,8.33-4.07,17.42-6.11,27.25-6.11,13.58,0,24.63,3.25,33.15,9.76s12.78,15.38,12.78,26.61c0,4.68-1.12,8.82-3.37,12.43s-5.95,5.41-11.1,5.41c-5.52,0-9.81-1.4-12.85-4.2s-4.56-5.92-4.56-9.37c0-4.2,.56-8.52,1.69-12.96,1.12-4.42,1.78-7.68,1.97-9.73-1.69-2.89-4.18-4.83-7.49-5.81-3.32-.98-6.89-1.47-10.72-1.47-4.48,0-8.75,.96-12.82,2.88-4.06,1.92-8.02,5.45-11.84,10.6-3.45,4.68-6.25,11-8.4,18.96-2.14,7.96-3.22,17.46-3.22,28.51,0,17.42,3.85,31.62,11.56,42.63s17.84,16.5,30.36,16.5c9.07,0,16.67-2.21,22.79-6.64s11.81-11.06,17.04-19.91l8.98,5.9c-6.18,11.05-14.33,19.8-24.44,26.26-10.11,6.46-20.55,9.69-31.32,9.69Z"/>
      <path class="cls-1" d="M447.09,836.35h-68.12v-9.27c2.15-.19,4.54-.37,7.16-.56s4.78-.56,6.46-1.12c2.62-.84,4.56-2.32,5.83-4.42s1.9-4.85,1.9-8.22v-71.21c0-9.83-2.33-17.42-6.98-22.75-4.63-5.34-10.3-8.01-16.96-8.01-4.88,0-9.41,.77-13.59,2.32-4.17,1.54-7.9,3.44-11.19,5.69-3.18,2.34-5.63,4.68-7.32,7.02-1.7,2.34-3.01,4.31-3.94,5.9v79.63c0,3.18,.63,5.81,1.9,7.87s3.21,3.65,5.83,4.78c2.06,.94,4.19,1.64,6.39,2.11s4.61,.8,7.23,.98v9.27h-67.84v-9.27c2.14-.19,4.37-.4,6.69-.63s4.28-.59,5.86-1.05c2.6-.84,4.55-2.32,5.85-4.42s1.95-4.86,1.95-8.23v-161.35c0-3.18-.73-6.37-2.18-9.55-1.45-3.2-3.35-5.58-5.69-7.17-1.69-1.22-4.66-2.08-8.92-2.6s-7.7-.87-10.32-1.05v-8.99l51.26-3.09,1.97,2.11v96.63h.56c3.09-3.09,5.91-5.83,8.44-8.22,2.54-2.39,5.86-4.89,10-7.51,3.56-2.25,7.76-4.12,12.58-5.62,4.83-1.5,10.25-2.25,16.26-2.25,12.37,0,21.9,3.91,28.55,11.73,6.66,7.82,10,19.08,10,33.78v72.05c0,3.28,.59,5.92,1.77,7.94s3.14,3.58,5.86,4.71c2.18,.84,4.13,1.47,5.88,1.9s4.03,.73,6.86,.91v9.27Z"/>
      <path class="cls-1" d="M594.99,833.82c-4.4,1.59-8.26,2.88-11.59,3.86-3.32,.98-7.09,1.47-11.31,1.47-7.3,0-13.13-1.71-17.49-5.13s-7.14-8.4-8.36-14.96h-.84c-6.09,6.74-12.62,11.89-19.59,15.45-6.98,3.56-15.38,5.34-25.21,5.34-10.39,0-18.94-3.18-25.63-9.55-6.69-6.37-10.04-14.7-10.04-25,0-5.34,.75-10.11,2.25-14.33s3.75-8.01,6.74-11.38c2.34-2.81,5.43-5.31,9.27-7.51s7.44-3.96,10.81-5.27c4.21-1.59,12.76-4.54,25.63-8.85,12.87-4.31,21.56-7.68,26.05-10.11v-13.9c0-1.22-.26-3.56-.77-7.02-.51-3.46-1.62-6.74-3.3-9.83-1.87-3.46-4.52-6.48-7.94-9.06s-8.26-3.86-14.54-3.86c-4.31,0-8.31,.73-12.01,2.18-3.7,1.45-6.3,2.97-7.79,4.56,0,1.87,.44,4.63,1.33,8.29s1.33,7.02,1.33,10.11c0,3.28-1.47,6.27-4.42,8.99s-7.05,4.07-12.29,4.07c-4.68,0-8.12-1.66-10.32-4.99s-3.3-7.05-3.3-11.17,1.52-8.43,4.56-12.36c3.04-3.93,7-7.44,11.87-10.53,4.21-2.62,9.32-4.85,15.31-6.67,5.99-1.83,11.84-2.74,17.56-2.74,7.87,0,14.72,.54,20.58,1.62s11.17,3.39,15.94,6.95c4.78,3.46,8.4,8.17,10.88,14.12,2.48,5.95,3.72,13.6,3.72,22.96,0,13.39-.14,25.26-.42,35.6-.28,10.35-.42,21.65-.42,33.92,0,3.65,.63,6.55,1.9,8.71,1.26,2.15,3.21,3.98,5.83,5.48,1.4,.84,3.63,1.31,6.67,1.4s6.16,.14,9.34,.14v8.99Zm-49.02-74.16c-7.96,2.34-14.93,4.65-20.93,6.89-5.99,2.26-11.56,5.07-16.71,8.45-4.68,3.18-8.38,6.96-11.1,11.33-2.72,4.37-4.07,9.55-4.07,15.55,0,7.78,2.04,13.51,6.11,17.17,4.07,3.66,9.25,5.49,15.52,5.49,6.65,0,12.5-1.62,17.56-4.86,5.06-3.24,9.32-7.06,12.78-11.47l.84-48.56Z"/>
      <path class="cls-1" d="M675.88,836.35h-66.85v-9.27c2.15-.19,4.38-.37,6.67-.56s4.28-.56,5.97-1.12c2.62-.84,4.56-2.31,5.83-4.41s1.9-4.85,1.9-8.2v-85.44c0-3-.68-5.72-2.04-8.2s-3.25-4.56-5.69-6.24c-1.78-1.12-4.35-2.08-7.72-2.88s-6.46-1.29-9.27-1.47v-9.27l48.88-3.09,1.97,1.97v112.92c0,3.28,.63,5.99,1.88,8.15s3.23,3.75,5.92,4.78c2.05,.84,4.05,1.52,6,2.04,1.95,.51,4.13,.87,6.55,1.05v9.27Zm-17.56-194.8c0,5.34-1.76,10-5.27,13.97-3.51,3.98-7.84,5.97-12.99,5.97-4.78,0-8.92-1.9-12.43-5.69-3.51-3.79-5.27-8.12-5.27-12.99,0-5.15,1.76-9.64,5.27-13.48,3.51-3.84,7.65-5.76,12.43-5.76,5.34,0,9.71,1.8,13.13,5.41s5.13,7.79,5.13,12.57Z"/>
      <path class="cls-1" d="M799.06,715.7c0,4.78-1.17,9.01-3.51,12.71-2.34,3.7-5.95,5.55-10.81,5.55-5.24,0-9.25-1.36-12.01-4.07-2.76-2.72-4.14-5.71-4.14-8.99,0-2.06,.16-3.93,.49-5.62s.63-3.37,.91-5.06c-4.4,0-9.55,1.78-15.45,5.34-5.9,3.56-10.91,8.61-15.03,15.17v80.62c0,3.28,.63,5.95,1.9,8.01s3.25,3.6,5.97,4.63c2.34,.94,5.36,1.64,9.06,2.11,3.7,.47,6.91,.8,9.62,.98v9.27h-73.03v-9.27c2.15-.19,4.38-.37,6.67-.56s4.28-.56,5.97-1.12c2.62-.84,4.56-2.31,5.83-4.41s1.9-4.85,1.9-8.2v-85.44c0-2.9-.68-5.75-2.04-8.56s-3.25-5.04-5.69-6.73c-1.78-1.12-3.89-1.94-6.32-2.46s-5.06-.87-7.87-1.05v-9.27l46.07-3.09,1.97,1.97v19.52h.7c5.81-7.58,12.27-13.34,19.38-17.28,7.12-3.93,13.62-5.9,19.52-5.9s10.7,1.92,14.4,5.76c3.7,3.84,5.55,8.99,5.55,15.45Z"/>
      <path class="cls-1" d="M902.29,768.51c3.84,3.37,6.79,7.26,8.85,11.66s3.09,9.78,3.09,16.15c0,12.83-4.8,23.31-14.4,31.46-9.6,8.15-22.03,12.22-37.29,12.22-8.05,0-15.47-1.45-22.26-4.35-6.79-2.9-11.63-5.57-14.54-8.01l-2.81,9.13h-10.53l-1.4-48.17h9.69c.75,3.66,2.34,7.95,4.78,12.83,2.43,4.88,5.38,9.3,8.85,13.25,3.65,4.13,8.03,7.61,13.13,10.43s10.84,4.23,17.2,4.23c8.99,0,15.92-2.05,20.79-6.14s7.3-9.96,7.3-17.59c0-3.93-.77-7.33-2.32-10.18s-3.82-5.36-6.81-7.51c-3.09-2.15-6.88-4.1-11.38-5.83s-9.5-3.44-15.03-5.13c-4.4-1.31-9.29-3.11-14.68-5.41s-10-4.99-13.83-8.08c-4.12-3.28-7.49-7.3-10.11-12.08-2.62-4.78-3.93-10.39-3.93-16.85,0-11.33,4.21-20.93,12.64-28.79,8.43-7.87,19.71-11.8,33.85-11.8,5.43,0,10.98,.7,16.64,2.11,5.66,1.4,10.28,3.09,13.83,5.06l3.23-7.3h10.11l2.11,44.52h-9.69c-1.97-9.96-6.2-18.07-12.71-24.33-6.51-6.25-14.44-9.37-23.81-9.37-7.68,0-13.72,1.93-18.12,5.81-4.4,3.86-6.6,8.53-6.6,14,0,4.21,.73,7.72,2.18,10.53,1.45,2.81,3.63,5.2,6.53,7.16,2.81,1.87,6.34,3.63,10.6,5.27s9.53,3.49,15.8,5.55c6.18,1.97,12.01,4.26,17.49,6.88s10,5.52,13.55,8.71Z"/>
    </g>
  </g>
</svg>